<svg width="72" height="72" viewBox="0 0 72 72" fill="none" xmlns="http://www.w3.org/2000/svg">
<path d="M27.87 47.64L39.51 36L27.87 24.36C27.5922 24.0822 27.3719 23.7525 27.2216 23.3896C27.0713 23.0267 26.9939 22.6378 26.9939 22.245C26.9939 21.8522 27.0713 21.4632 27.2216 21.1003C27.3719 20.7374 27.5922 20.4077 27.87 20.13C28.1477 19.8522 28.4774 19.6319 28.8403 19.4816C29.2032 19.3313 29.5922 19.2539 29.985 19.2539C30.3778 19.2539 30.7667 19.3313 31.1296 19.4816C31.4925 19.6319 31.8222 19.8522 32.1 20.13L45.87 33.9C47.04 35.07 47.04 36.96 45.87 38.13L32.1 51.9C31.8224 52.1781 31.4928 52.3987 31.1298 52.5493C30.7669 52.6998 30.3779 52.7773 29.985 52.7773C29.5921 52.7773 29.203 52.6998 28.8401 52.5493C28.4772 52.3987 28.1475 52.1781 27.87 51.9C26.73 50.73 26.7 48.81 27.87 47.64Z" fill="white"/>
</svg>
