<svg width="109" height="40" viewBox="0 0 109 40" fill="none" xmlns="http://www.w3.org/2000/svg">
<g filter="url(#filter0_d_7_161)">
<path fill-rule="evenodd" clip-rule="evenodd" d="M43 19.4666C43.9194 19.4666 44.8012 19.1013 45.4513 18.4512C46.1015 17.8011 46.4667 16.9193 46.4667 15.9999C46.4667 15.0805 46.1015 14.1987 45.4513 13.5486C44.8012 12.8985 43.9194 12.5332 43 12.5332C42.0806 12.5332 41.1988 12.8985 40.5487 13.5486C39.8986 14.1987 39.5334 15.0805 39.5334 15.9999C39.5334 16.9193 39.8986 17.8011 40.5487 18.4512C41.1988 19.1013 42.0806 19.4666 43 19.4666ZM43 21.5999C43.7354 21.5999 44.4636 21.4551 45.1431 21.1736C45.8225 20.8922 46.4398 20.4797 46.9598 19.9597C47.4798 19.4397 47.8923 18.8224 48.1737 18.1429C48.4552 17.4635 48.6 16.7353 48.6 15.9999C48.6 15.2645 48.4552 14.5363 48.1737 13.8569C47.8923 13.1775 47.4798 12.5601 46.9598 12.0401C46.4398 11.5201 45.8225 11.1076 45.1431 10.8262C44.4636 10.5448 43.7354 10.3999 43 10.3999C41.5148 10.3999 40.0904 10.9899 39.0402 12.0401C37.99 13.0903 37.4 14.5147 37.4 15.9999C37.4 17.4851 37.99 18.9095 39.0402 19.9597C40.0904 21.0099 41.5148 21.5999 43 21.5999Z" fill="white"/>
<path fill-rule="evenodd" clip-rule="evenodd" d="M89 19.4666C89.9194 19.4666 90.8012 19.1013 91.4513 18.4512C92.1015 17.8011 92.4667 16.9193 92.4667 15.9999C92.4667 15.0805 92.1015 14.1987 91.4513 13.5486C90.8012 12.8985 89.9194 12.5332 89 12.5332C88.0806 12.5332 87.1988 12.8985 86.5487 13.5486C85.8986 14.1987 85.5334 15.0805 85.5334 15.9999C85.5334 16.9193 85.8986 17.8011 86.5487 18.4512C87.1988 19.1013 88.0806 19.4666 89 19.4666ZM89 21.5999C89.7354 21.5999 90.4636 21.4551 91.1431 21.1736C91.8225 20.8922 92.4398 20.4797 92.9598 19.9597C93.4798 19.4397 93.8923 18.8224 94.1737 18.1429C94.4552 17.4635 94.6 16.7353 94.6 15.9999C94.6 15.2645 94.4552 14.5363 94.1737 13.8569C93.8923 13.1775 93.4798 12.5601 92.9598 12.0401C92.4398 11.5201 91.8225 11.1076 91.1431 10.8262C90.4636 10.5448 89.7354 10.3999 89 10.3999C87.5148 10.3999 86.0904 10.9899 85.0402 12.0401C83.99 13.0903 83.4 14.5147 83.4 15.9999C83.4 17.4851 83.99 18.9095 85.0402 19.9597C86.0904 21.0099 87.5148 21.5999 89 21.5999Z" fill="white"/>
<path fill-rule="evenodd" clip-rule="evenodd" d="M67 19.4666C67.9194 19.4666 68.8012 19.1013 69.4513 18.4512C70.1015 17.8011 70.4667 16.9193 70.4667 15.9999C70.4667 15.0805 70.1015 14.1987 69.4513 13.5486C68.8012 12.8985 67.9194 12.5332 67 12.5332C66.0806 12.5332 65.1988 12.8985 64.5487 13.5486C63.8986 14.1987 63.5334 15.0805 63.5334 15.9999C63.5334 16.9193 63.8986 17.8011 64.5487 18.4512C65.1988 19.1013 66.0806 19.4666 67 19.4666ZM67 21.5999C67.7354 21.5999 68.4636 21.4551 69.1431 21.1736C69.8225 20.8922 70.4398 20.4797 70.9598 19.9597C71.4798 19.4397 71.8923 18.8224 72.1737 18.1429C72.4552 17.4635 72.6 16.7353 72.6 15.9999C72.6 15.2645 72.4552 14.5363 72.1737 13.8569C71.8923 13.1775 71.4798 12.5601 70.9598 12.0401C70.4398 11.5201 69.8225 11.1076 69.1431 10.8262C68.4636 10.5448 67.7354 10.3999 67 10.3999C65.5148 10.3999 64.0904 10.9899 63.0402 12.0401C61.99 13.0903 61.4 14.5147 61.4 15.9999C61.4 17.4851 61.99 18.9095 63.0402 19.9597C64.0904 21.0099 65.5148 21.5999 67 21.5999Z" fill="white"/>
<path d="M25.0667 16C25.0667 17.3438 24.5329 18.6325 23.5827 19.5827C22.6325 20.5329 21.3438 21.0667 20 21.0667C18.6563 21.0667 17.3675 20.5329 16.4173 19.5827C15.4672 18.6325 14.9333 17.3438 14.9333 16C14.9333 14.6563 15.4672 13.3675 16.4173 12.4173C17.3675 11.4672 18.6563 10.9333 20 10.9333C21.3438 10.9333 22.6325 11.4672 23.5827 12.4173C24.5329 13.3675 25.0667 14.6563 25.0667 16Z" fill="white"/>
</g>
<defs>
<filter id="filter0_d_7_161" x="0" y="0" width="109" height="40" filterUnits="userSpaceOnUse" color-interpolation-filters="sRGB">
<feFlood flood-opacity="0" result="BackgroundImageFix"/>
<feColorMatrix in="SourceAlpha" type="matrix" values="0 0 0 0 0 0 0 0 0 0 0 0 0 0 0 0 0 0 127 0" result="hardAlpha"/>
<feOffset dy="4"/>
<feGaussianBlur stdDeviation="2"/>
<feComposite in2="hardAlpha" operator="out"/>
<feColorMatrix type="matrix" values="0 0 0 0 0 0 0 0 0 0 0 0 0 0 0 0 0 0 0.25 0"/>
<feBlend mode="normal" in2="BackgroundImageFix" result="effect1_dropShadow_7_161"/>
<feBlend mode="normal" in="SourceGraphic" in2="effect1_dropShadow_7_161" result="shape"/>
</filter>
</defs>
</svg>
