<svg width="50" height="50" viewBox="0 0 50 50" fill="none" xmlns="http://www.w3.org/2000/svg">
<path d="M46.0938 17.9688C46.0938 23.9453 42.6367 30.0781 35.8203 36.2109C32.7251 38.9935 29.3549 41.4541 25.7617 43.5547C25.5283 43.6829 25.2663 43.7501 25 43.7501C24.7337 43.7501 24.4717 43.6829 24.2383 43.5547C23.3984 43.0859 3.90625 32.0117 3.90625 17.9688C3.90625 15.5092 4.68013 13.112 6.11826 11.1167C7.55639 9.12138 9.58586 7.62915 11.9192 6.85137C14.2525 6.07359 16.7715 6.04968 19.1192 6.78304C21.4668 7.51641 23.5243 8.96985 25 10.9375C26.4757 8.96985 28.5332 7.51641 30.8808 6.78304C33.2285 6.04968 35.7474 6.07359 38.0808 6.85137C40.4141 7.62915 42.4436 9.12138 43.8817 11.1167C45.3199 13.112 46.0938 15.5092 46.0938 17.9688Z" fill="#F80404"/>
</svg>
