<svg width="52" height="52" viewBox="0 0 52 52" fill="none" xmlns="http://www.w3.org/2000/svg">
<path d="M33.5833 30.3333H31.8716L31.2649 29.7483C32.619 28.1752 33.6086 26.3223 34.163 24.3221C34.7173 22.3219 34.8227 20.2239 34.4716 18.1783C33.4533 12.1549 28.4266 7.34495 22.3599 6.60828C20.2271 6.33845 18.0608 6.56012 16.0268 7.2563C13.9928 7.95249 12.1451 9.10475 10.6249 10.6249C9.10475 12.1451 7.95249 13.9928 7.2563 16.0268C6.56012 18.0608 6.33845 20.2271 6.60828 22.3599C7.34495 28.4266 12.1549 33.4533 18.1783 34.4716C20.2239 34.8227 22.3219 34.7173 24.3221 34.163C26.3223 33.6086 28.1752 32.619 29.7483 31.2649L30.3333 31.8716V33.5833L39.5416 42.7916C40.4299 43.6799 41.8816 43.6799 42.7699 42.7916C43.6583 41.9033 43.6583 40.4516 42.7699 39.5633L33.5833 30.3333ZM20.5833 30.3333C15.1883 30.3333 10.8333 25.9783 10.8333 20.5833C10.8333 15.1883 15.1883 10.8333 20.5833 10.8333C25.9783 10.8333 30.3333 15.1883 30.3333 20.5833C30.3333 25.9783 25.9783 30.3333 20.5833 30.3333Z" fill="black"/>
</svg>
