<svg width="72" height="72" viewBox="0 0 72 72" fill="none" xmlns="http://www.w3.org/2000/svg">
<path d="M44.13 47.64L32.49 36L44.13 24.36C44.4078 24.0822 44.6281 23.7525 44.7784 23.3896C44.9287 23.0267 45.0061 22.6378 45.0061 22.245C45.0061 21.8522 44.9287 21.4632 44.7784 21.1003C44.6281 20.7374 44.4078 20.4077 44.13 20.13C43.8523 19.8522 43.5225 19.6319 43.1596 19.4816C42.7968 19.3313 42.4078 19.2539 42.015 19.2539C41.6222 19.2539 41.2333 19.3313 40.8704 19.4816C40.5075 19.6319 40.1778 19.8522 39.9 20.13L26.13 33.9C25.8519 34.1775 25.6313 34.5072 25.4807 34.8701C25.3302 35.233 25.2527 35.6221 25.2527 36.015C25.2527 36.4079 25.3302 36.7969 25.4807 37.1598C25.6313 37.5228 25.8519 37.8524 26.13 38.13L39.9 51.9C41.07 53.07 42.96 53.07 44.13 51.9C45.27 50.73 45.3 48.81 44.13 47.64Z" fill="white"/>
</svg>
