<svg width="53" height="53" viewBox="0 0 53 53" fill="none" xmlns="http://www.w3.org/2000/svg">
<path d="M15.7344 26.5C15.7344 26.9914 15.5887 27.4717 15.3157 27.8802C15.0427 28.2888 14.6547 28.6072 14.2007 28.7953C13.7468 28.9833 13.2472 29.0325 12.7653 28.9366C12.2834 28.8408 11.8407 28.6042 11.4933 28.2567C11.1458 27.9093 10.9092 27.4666 10.8134 26.9847C10.7175 26.5028 10.7667 26.0032 10.9547 25.5493C11.1428 25.0953 11.4612 24.7073 11.8698 24.4343C12.2783 24.1613 12.7586 24.0156 13.25 24.0156C13.9089 24.0156 14.5408 24.2774 15.0067 24.7433C15.4726 25.2092 15.7344 25.8411 15.7344 26.5ZM39.75 24.0156C39.2586 24.0156 38.7783 24.1613 38.3698 24.4343C37.9612 24.7073 37.6428 25.0953 37.4547 25.5493C37.2667 26.0032 37.2175 26.5028 37.3134 26.9847C37.4092 27.4666 37.6458 27.9093 37.9933 28.2567C38.3407 28.6042 38.7834 28.8408 39.2653 28.9366C39.7472 29.0325 40.2468 28.9833 40.7007 28.7953C41.1547 28.6072 41.5427 28.2888 41.8157 27.8802C42.0887 27.4717 42.2344 26.9914 42.2344 26.5C42.2344 25.8411 41.9726 25.2092 41.5067 24.7433C41.0408 24.2774 40.4089 24.0156 39.75 24.0156ZM26.5 24.0156C26.0086 24.0156 25.5283 24.1613 25.1198 24.4343C24.7112 24.7073 24.3928 25.0953 24.2047 25.5493C24.0167 26.0032 23.9675 26.5028 24.0634 26.9847C24.1592 27.4666 24.3958 27.9093 24.7433 28.2567C25.0907 28.6042 25.5334 28.8408 26.0153 28.9366C26.4972 29.0325 26.9968 28.9833 27.4507 28.7953C27.9047 28.6072 28.2927 28.2888 28.5657 27.8802C28.8387 27.4717 28.9844 26.9914 28.9844 26.5C28.9844 25.8411 28.7226 25.2092 28.2567 24.7433C27.7908 24.2774 27.1589 24.0156 26.5 24.0156Z" fill="black"/>
</svg>
