<svg width="50" height="50" viewBox="0 0 50 50" fill="none" xmlns="http://www.w3.org/2000/svg">
<path d="M36.702 13.298C38.5169 15.1077 39.8868 17.3142 40.7036 19.7436C41.5203 22.173 41.7617 24.7589 41.4086 27.2975C41.0555 29.8361 40.1177 32.258 38.669 34.3723C37.2202 36.4866 35.3002 38.2356 33.0603 39.4813C30.8291 40.6869 28.3529 41.3693 25.8191 41.4768C23.2853 41.5844 20.7602 41.1143 18.4348 40.1022C16.1094 39.09 14.0447 37.5623 12.3968 35.6345C10.7489 33.7068 9.56091 31.4296 8.9228 28.9751C8.25843 26.209 8.31057 23.3192 9.0743 20.5789C9.83802 17.8386 11.2881 15.3383 13.2874 13.3146C14.227 12.3563 12.7541 10.8813 11.8145 11.8417C8.76732 14.8922 6.87208 18.9048 6.45164 23.1959C6.0312 27.487 7.11157 31.7911 9.50869 35.375C11.9058 38.9589 15.4714 41.6008 19.5979 42.8506C23.7245 44.1004 28.1567 43.8808 32.1395 42.2292C34.972 41.0562 37.4714 39.2025 39.4162 36.8325C41.361 34.4625 42.6911 31.6493 43.2886 28.6423C43.8862 25.6353 43.7327 22.5273 42.8417 19.5938C41.9508 16.6603 40.35 13.9919 38.1811 11.8251C37.2416 10.8646 35.7686 12.3396 36.7082 13.298H36.702Z" fill="black"/>
<path d="M31.9896 22.0833L25.7396 28.3333C25.5473 28.5295 25.2852 28.6418 25.0104 28.6458C24.871 28.6456 24.733 28.618 24.6043 28.5643C24.4756 28.5107 24.3587 28.4322 24.2604 28.3333L18.0104 22.0833C17.8143 21.8871 17.7041 21.6211 17.7041 21.3437C17.7041 21.0663 17.8143 20.8002 18.0104 20.6041C18.2066 20.4079 18.4726 20.2977 18.75 20.2977C19.0274 20.2977 19.2935 20.4079 19.4896 20.6041L23.9479 25.0624V7.40617C23.9522 7.13124 24.0634 6.86878 24.2578 6.67435C24.4522 6.47992 24.7147 6.3688 24.9896 6.3645C25.2659 6.3645 25.5308 6.47425 25.7262 6.6696C25.9215 6.86495 26.0313 7.1299 26.0313 7.40617V25.0937L30.5104 20.5937C30.6076 20.4965 30.7229 20.4195 30.8498 20.3669C30.9767 20.3144 31.1127 20.2873 31.25 20.2873C31.3874 20.2873 31.5234 20.3144 31.6503 20.3669C31.7772 20.4195 31.8925 20.4965 31.9896 20.5937C32.0867 20.6908 32.1638 20.8061 32.2163 20.933C32.2689 21.0599 32.296 21.1959 32.296 21.3333C32.296 21.4706 32.2689 21.6066 32.2163 21.7335C32.1638 21.8604 32.0867 21.9757 31.9896 22.0728V22.0833Z" fill="black"/>
</svg>
